<?xml version="1.0" encoding="UTF-8" standalone="no"?>
<svg width="24px" height="25px" viewBox="0 0 24 25" version="1.1" xmlns="http://www.w3.org/2000/svg" xmlns:xlink="http://www.w3.org/1999/xlink">
    <!-- Generator: Sketch 41.2 (35397) - http://www.bohemiancoding.com/sketch -->
    <title>Logo</title>
    <desc>Created with Sketch.</desc>
    <defs></defs>
    <g id="Page-1" stroke="none" stroke-width="1" fill="none" fill-rule="evenodd">
        <path d="M2.0161957,0.44234949 C1.3183293,0.44234949 0.7528834,1.02688856 0.7528834,1.74831952 L0.7528834,22.7993506 C0.7528834,23.5206043 1.3183293,24.1053207 2.0161957,24.1053207 L12.9791388,24.1053207 L12.9791388,14.9418086 L9.9961609,14.9418086 L9.9961609,11.3705613 L12.9791388,11.3705613 L12.9791388,8.7368994 C12.9791388,5.680504 14.784912,4.0162566 17.4223443,4.0162566 C18.6856566,4.0162566 19.7715219,4.1135172 20.0879075,4.1569609 L20.0879075,7.3510462 L18.2587205,7.3519328 C16.8243079,7.3519328 16.5466022,8.0565183 16.5466022,9.0904777 L16.5466022,11.3705613 L19.967494,11.3705613 L19.5220328,14.9418086 L16.5466022,14.9418086 L16.5466022,24.1053207 L22.3796228,24.1053207 C23.0773176,24.1053207 23.642935,23.5206043 23.642935,22.7993506 L23.642935,1.74831952 C23.642935,1.02688856 23.0773176,0.44234949 22.3796228,0.44234949 L2.0161957,0.44234949 Z" id="Logo" fill="#FFFFFF"></path>
    </g>
</svg>