<?xml version="1.0" encoding="UTF-8" standalone="no"?>
<svg width="29px" height="25px" viewBox="0 0 29 25" version="1.1" xmlns="http://www.w3.org/2000/svg" xmlns:xlink="http://www.w3.org/1999/xlink">
    <!-- Generator: Sketch 41.2 (35397) - http://www.bohemiancoding.com/sketch -->
    <title>twitter-icon</title>
    <desc>Created with Sketch.</desc>
    <defs></defs>
    <g id="Page-1" stroke="none" stroke-width="1" fill="none" fill-rule="evenodd">
        <path d="M28.9336755,3.2433978 C27.8809831,3.7186021 26.7496062,4.0398103 25.5621848,4.1840536 C26.7739825,3.4447448 27.7049325,2.27411947 28.1431492,0.87910779 C27.0088555,1.56371583 25.7526111,2.06082876 24.4154599,2.32867892 C23.344711,1.1676651 21.819078,0.44234949 20.1306589,0.44234949 C16.3415775,0.44234949 13.5561583,4.0407291 14.4125212,7.7772741 C9.5338012,7.5282229 5.2083037,5.149869 2.3130871,1.53587072 C0.7753701,4.2202381 1.5154772,7.7332449 4.1297072,9.5113035 C3.167575,9.4803488 2.2621818,9.2115799 1.4708916,8.7640086 C1.4072078,11.5316993 3.3561262,14.119669 6.1791169,14.6969249 C5.3529638,14.925693 4.4480567,14.9780616 3.5282878,14.7991885 C4.2751313,17.1723833 6.443158,18.8994868 9.0118996,18.947615 C6.5439271,20.9157836 3.4355747,21.7948834 0.321111,21.4213773 C2.9188818,23.1162539 6.0045247,24.1053207 9.3195542,24.1053207 C20.2181633,24.1053207 26.3756289,14.7375618 26.0044989,6.335689 C27.1515711,5.4934805 28.1466911,4.4413735 28.9336755,3.2433978 L28.9336755,3.2433978 Z" id="twitter-icon" fill="#FFFFFF"></path>
    </g>
</svg>